
<svg width="266" height="67" viewBox="0 0 266 67" fill="none" xmlns="http://www.w3.org/2000/svg">
<path d="M13.528 37.872C15.448 34.896 18.04 33.84 23.32 33.648C27.16 33.456 29.176 32.208 29.176 27.696C29.176 23.664 27.544 21.936 23.896 21.936C18.808 21.936 14.872 24.912 12.856 29.136V27.216C12.952 24.24 11.32 22.032 6.904 22.032C2.68 22.032 0.664 23.76 0.664 27.216V61.296C0.664 64.752 2.776 66.48 7.096 66.48C11.416 66.48 13.528 64.752 13.528 61.296V37.872ZM53.2188 38.16V38.832C34.7868 40.464 27.8748 45.36 27.8748 54C27.8748 61.68 33.2508 66.48 42.0828 66.48C47.2668 66.48 51.2028 64.944 53.9868 61.776V62.544C53.9868 65.328 55.5228 66.48 59.3628 66.48C63.8748 66.48 65.6028 64.848 65.6028 61.2V37.68C65.6028 32.976 64.6428 29.328 62.6268 26.928C59.7468 23.568 54.6588 21.84 47.7468 21.84C42.2748 21.84 37.1868 22.896 33.1548 25.104C30.7548 26.448 29.6988 27.792 29.6988 29.616C29.6988 32.112 31.6188 35.664 34.5948 35.664C35.7468 35.664 36.9948 35.088 38.6268 34.32C41.5068 32.976 44.2908 32.4 46.5948 32.4C51.5868 32.4 53.2188 34.512 53.2188 38.16ZM53.2188 46.32V54.096C51.0108 55.92 48.5148 56.784 46.0188 56.784C42.3708 56.784 40.9308 55.056 40.9308 52.848C40.9308 49.104 44.9628 47.376 53.2188 46.32ZM69.6843 44.784C69.6843 58.608 78.0363 66.576 88.5963 66.576C93.3963 66.576 97.1403 64.944 99.6363 61.872V62.448C99.6363 65.04 101.268 66.48 105.3 66.48C109.428 66.48 111.636 64.848 111.636 61.296V6C111.636 2.544 109.524 0.815998 105.204 0.815998C100.884 0.815998 98.7723 2.544 98.7723 6V23.664C96.9483 22.512 94.2603 22.032 91.1883 22.032C78.2283 22.032 69.6843 30.768 69.6843 44.784ZM98.7723 34.032V54.192C97.0443 55.536 95.0283 56.208 92.7243 56.208C86.7723 56.208 82.8363 51.888 82.8363 44.112C82.8363 36.624 86.6763 32.4 92.9163 32.4C95.1243 32.4 97.1403 32.976 98.7723 34.032ZM132.689 9.36C132.689 4.944 129.521 1.96799 125.105 1.96799C120.689 1.96799 117.521 4.944 117.521 9.36C117.521 13.776 120.689 16.848 125.105 16.848C129.521 16.848 132.689 13.776 132.689 9.36ZM131.537 27.216C131.537 23.76 129.425 22.032 125.105 22.032C120.785 22.032 118.673 23.76 118.673 27.216V61.296C118.673 64.752 120.785 66.48 125.105 66.48C129.425 66.48 131.537 64.752 131.537 61.296V27.216ZM171.948 66.48C175.98 66.48 178.092 64.752 178.092 61.296V27.216C178.092 23.76 175.98 22.032 171.66 22.032C167.34 22.032 165.228 23.76 165.228 27.216V51.984C163.596 54.192 161.004 55.344 158.028 55.344C155.436 55.344 153.612 54.48 152.46 52.848C151.5 51.6 151.212 49.68 151.212 47.472V27.216C151.212 23.76 149.1 22.032 144.78 22.032C140.46 22.032 138.348 23.76 138.348 27.216V49.488C138.348 54.192 139.212 57.936 140.94 60.624C143.532 64.656 147.756 66.576 153.036 66.576C158.892 66.576 163.5 64.176 165.9 60.24V61.296C165.804 64.368 167.436 66.48 171.948 66.48ZM205.382 53.52C205.382 55.44 203.462 56.4 200.582 56.4C197.222 56.4 194.726 55.152 191.75 53.616C190.31 52.848 189.158 52.272 187.91 52.272C184.454 52.272 182.726 56.016 182.726 58.224C182.726 60.24 183.974 61.776 186.278 63.12C190.31 65.52 194.342 66.672 200.102 66.672C211.334 66.672 217.67 61.488 217.67 53.328C217.67 38.256 195.398 40.752 195.398 34.8C195.398 33.072 197.03 32.112 199.622 32.112C202.022 32.112 204.614 32.88 207.782 34.224C209.99 35.184 210.854 35.568 211.814 35.568C214.982 35.568 216.902 32.016 216.902 29.616C216.902 27.696 215.654 26.256 213.446 25.008C210.086 23.088 205.958 21.84 200.294 21.84C189.158 21.84 183.11 27.408 183.11 35.088C183.11 49.872 205.382 47.28 205.382 53.52ZM260.363 36.816H248.171V22.896C248.171 19.44 246.347 17.712 242.699 17.712C239.051 17.712 237.227 19.44 237.227 22.896V36.816H225.035C221.579 36.816 219.851 38.544 219.851 42C219.851 45.456 221.579 47.184 225.035 47.184H237.227V61.008C237.227 64.464 239.051 66.192 242.699 66.192C246.347 66.192 248.171 64.464 248.171 61.008V47.184H260.363C263.819 47.184 265.547 45.456 265.547 42C265.547 38.544 263.819 36.816 260.363 36.816Z" fill="black"/>
</svg>
