<?xml version="1.0" encoding="UTF-8" standalone="no"?>
<!-- Generator: Adobe Illustrator 23.0.1, SVG Export Plug-In . SVG Version: 6.00 Build 0)  -->

<svg
   version="1.1"
   id="Layer_1"
   x="0px"
   y="0px"
   viewBox="0 0 590.6 142.7"
   style="enable-background:new 0 0 590.6 142.7;"
   xml:space="preserve"
   sodipodi:docname="spenco-logo.svg"
   inkscape:version="1.1 (c68e22c387, 2021-05-23)"
   xmlns:inkscape="http://www.inkscape.org/namespaces/inkscape"
   xmlns:sodipodi="http://sodipodi.sourceforge.net/DTD/sodipodi-0.dtd"
   xmlns="http://www.w3.org/2000/svg"
   xmlns:svg="http://www.w3.org/2000/svg"><defs
   id="defs789" /><sodipodi:namedview
   id="namedview787"
   pagecolor="#ffffff"
   bordercolor="#666666"
   borderopacity="1.0"
   inkscape:pageshadow="2"
   inkscape:pageopacity="0.0"
   inkscape:pagecheckerboard="0"
   showgrid="false"
   inkscape:zoom="2.5143921"
   inkscape:cx="271.03966"
   inkscape:cy="71.389024"
   inkscape:window-width="1920"
   inkscape:window-height="1017"
   inkscape:window-x="-8"
   inkscape:window-y="-8"
   inkscape:window-maximized="1"
   inkscape:current-layer="Layer_1" />
<style
   type="text/css"
   id="style684">
	.st0{fill:#FFFFFF;}
	.st1{fill:#F5821F;}
	.st2{fill:#19469D;}
</style>
<g
   id="g784">
	<g
   id="g688">
		<path
   class="st2"
   d="M367.5,142.7c-0.7,0-1.2-0.5-1.2-1.2V1.2c0-0.7,0.5-1.2,1.2-1.2s1.2,0.5,1.2,1.2v140.3    C368.7,142.2,368.2,142.7,367.5,142.7z"
   id="path686" />
	</g>
	<g
   id="g722">
		<path
   class="st2"
   d="M402.8,65.4c0.5,4.6,2.3,8.2,5.4,10.8c3.1,2.6,6.8,3.8,11.1,3.8c3.8,0,7.1-0.8,9.7-2.4c2.6-1.6,4.9-3.6,6.9-6    l11,8.3c-3.6,4.4-7.6,7.6-12,9.5c-4.4,1.9-9.1,2.8-14,2.8c-4.6,0-9-0.8-13.1-2.3c-4.1-1.5-7.6-3.7-10.6-6.5    c-3-2.8-5.4-6.2-7.1-10.2c-1.8-4-2.6-8.4-2.6-13.3c0-4.9,0.9-9.3,2.6-13.3c1.7-4,4.1-7.4,7.1-10.2c3-2.8,6.5-5,10.6-6.5    c4.1-1.5,8.5-2.3,13.1-2.3c4.3,0,8.2,0.7,11.7,2.2c3.5,1.5,6.6,3.7,9.1,6.5c2.5,2.8,4.5,6.3,5.9,10.4c1.4,4.1,2.1,8.9,2.1,14.3    v4.2H402.8z M434.4,53.9c-0.1-4.6-1.5-8.2-4.2-10.8c-2.7-2.6-6.5-3.8-11.4-3.8c-4.6,0-8.3,1.3-11,4c-2.7,2.6-4.3,6.2-4.9,10.6    H434.4z"
   id="path690" />
		<path
   class="st2"
   d="M524.3,29.3h14.6v9.2h0.3c2.2-3.8,5.2-6.6,9-8.3c3.8-1.7,7.8-2.5,12.2-2.5c4.7,0,8.9,0.8,12.7,2.5    c3.8,1.7,7,4,9.6,6.9c2.6,2.9,4.7,6.3,6,10.2c1.4,3.9,2,8.2,2,12.7c0,4.5-0.7,8.8-2.2,12.7c-1.5,3.9-3.5,7.3-6.1,10.2    c-2.6,2.9-5.7,5.2-9.4,6.9c-3.7,1.7-7.7,2.5-12,2.5c-2.8,0-5.4-0.3-7.6-0.9c-2.3-0.6-4.2-1.4-6-2.3c-1.7-0.9-3.2-1.9-4.4-3    c-1.2-1.1-2.2-2.1-2.9-3.1h-0.4v37h-15.4V29.3z M575.2,60c0-2.4-0.4-4.7-1.2-6.9c-0.8-2.2-2-4.2-3.6-5.9c-1.6-1.7-3.5-3.1-5.7-4.1    c-2.2-1-4.7-1.5-7.6-1.5c-2.8,0-5.3,0.5-7.6,1.5c-2.2,1-4.1,2.4-5.7,4.1c-1.6,1.7-2.8,3.7-3.6,5.9c-0.8,2.2-1.2,4.5-1.2,6.9    c0,2.4,0.4,4.7,1.2,6.9c0.8,2.2,2,4.2,3.6,5.9c1.6,1.7,3.5,3.1,5.7,4.1c2.2,1,4.7,1.5,7.6,1.5c2.8,0,5.3-0.5,7.6-1.5    c2.2-1,4.1-2.4,5.7-4.1c1.6-1.7,2.8-3.7,3.6-5.9C574.8,64.7,575.2,62.4,575.2,60"
   id="path692" />
		<polygon
   class="st2"
   points="493.1,60 516.6,90.8 497.9,90.8 483.7,72.3 469.7,90.8 451,90.8 509.1,14.5 527.8,14.5   "
   id="polygon694" />
		<polygon
   class="st1"
   points="469.7,29.3 451,29.3 469.9,54.1 479.2,41.9   "
   id="polygon696" />
		<polygon
   class="st2"
   points="579.3,21.6 579.3,15.7 577.2,15.7 577.2,14.5 582.8,14.5 582.8,15.7 580.7,15.7 580.7,21.6   "
   id="polygon698" />
		<polygon
   class="st2"
   points="583.8,21.6 583.8,14.5 585.9,14.5 587.2,19.4 588.5,14.5 590.6,14.5 590.6,21.6 589.3,21.6 589.3,16     587.9,21.6 586.5,21.6 585.1,16 585.1,21.6   "
   id="polygon700" />
		<path
   class="st2"
   d="M396.4,104.7c2,0,3.4,0.6,4.7,1.8c0.2,0.2,0.2,0.4,0,0.5l-1.2,1.2c-0.1,0.2-0.3,0.2-0.5,0    c-0.8-0.7-1.9-1.1-3-1.1c-2.5,0-4.3,2.1-4.3,4.5c0,2.4,1.9,4.5,4.4,4.5c1.2,0,2.2-0.4,3-1.1c0.2-0.1,0.4-0.1,0.5,0l1.2,1.2    c0.2,0.1,0.1,0.4,0,0.5c-1.3,1.3-3,1.9-4.7,1.9c-3.9,0-7-3.1-7-7C389.4,107.8,392.5,104.7,396.4,104.7"
   id="path702" />
		<path
   class="st2"
   d="M409.6,116.1c2.4,0,4.5-2,4.5-4.5c0-2.4-2-4.5-4.5-4.5c-2.4,0-4.5,2-4.5,4.5    C405.2,114.1,407.2,116.1,409.6,116.1 M409.6,104.7c3.9,0,7,3.1,7,7c0,3.9-3.1,7-7,7c-3.9,0-7-3.1-7-7    C402.6,107.8,405.7,104.7,409.6,104.7"
   id="path704" />
		<path
   class="st2"
   d="M420.6,104.9c0-0.2,0.1-0.3,0.4-0.3h0.3c0.2,0,0.3,0.1,0.3,0.2l4.3,9.2h0.1l4.3-9.2c0.1-0.1,0.2-0.2,0.3-0.2    h0.3c0.2,0,0.3,0.1,0.3,0.3l2.3,13.1c0.1,0.3-0.1,0.4-0.3,0.4h-1.8c-0.2,0-0.3-0.2-0.4-0.3l-1.1-7.4h-0.1l-3.4,7.6    c0,0.1-0.2,0.2-0.3,0.2h-0.4c-0.2,0-0.3-0.1-0.3-0.2l-3.4-7.6h-0.1l-1.1,7.4c0,0.1-0.2,0.3-0.3,0.3h-1.7c-0.3,0-0.4-0.2-0.4-0.4    L420.6,104.9z"
   id="path706" />
		<path
   class="st2"
   d="M437.6,104.9c0-0.2,0.1-0.3,0.4-0.3h0.3c0.2,0,0.3,0.1,0.3,0.2l4.3,9.2h0.1l4.3-9.2c0.1-0.1,0.2-0.2,0.3-0.2    h0.3c0.2,0,0.3,0.1,0.3,0.3l2.3,13.1c0.1,0.3-0.1,0.4-0.3,0.4h-1.8c-0.2,0-0.3-0.2-0.4-0.3l-1.1-7.4h-0.1l-3.4,7.6    c0,0.1-0.2,0.2-0.3,0.2h-0.4c-0.2,0-0.3-0.1-0.3-0.2l-3.4-7.6h-0.1l-1.1,7.4c0,0.1-0.2,0.3-0.3,0.3h-1.7c-0.3,0-0.4-0.2-0.4-0.4    L437.6,104.9z"
   id="path708" />
		<path
   class="st2"
   d="M453.1,105.2c0-0.2,0.2-0.4,0.4-0.4h7.9c0.2,0,0.4,0.2,0.4,0.4v1.6c0,0.2-0.2,0.4-0.4,0.4h-5.8v3.2h4.8    c0.2,0,0.4,0.2,0.4,0.4v1.6c0,0.2-0.2,0.4-0.4,0.4h-4.8v3.4h5.8c0.2,0,0.4,0.2,0.4,0.4v1.6c0,0.2-0.2,0.4-0.4,0.4h-7.9    c-0.2,0-0.4-0.2-0.4-0.4V105.2z"
   id="path710" />
		<path
   class="st2"
   d="M470.3,111c1,0,1.9-0.9,1.9-2c0-1-0.9-1.9-1.9-1.9h-3.2v3.9H470.3z M464.5,105.2c0-0.2,0.2-0.4,0.4-0.4h5.6    c2.3,0,4.2,1.9,4.2,4.2c0,1.8-1.2,3.2-2.9,3.9l2.7,4.9c0.1,0.3,0,0.6-0.3,0.6h-2c-0.2,0-0.3-0.1-0.3-0.2l-2.6-5.2h-2.2v5    c0,0.2-0.2,0.4-0.4,0.4h-1.8c-0.2,0-0.4-0.2-0.4-0.4V105.2z"
   id="path712" />
		<path
   class="st2"
   d="M483.5,104.7c2,0,3.4,0.6,4.7,1.8c0.2,0.2,0.2,0.4,0,0.5l-1.2,1.2c-0.1,0.2-0.3,0.2-0.5,0    c-0.8-0.7-1.9-1.1-3-1.1c-2.5,0-4.3,2.1-4.3,4.5c0,2.4,1.9,4.5,4.4,4.5c1.2,0,2.2-0.4,3-1.1c0.2-0.1,0.4-0.1,0.5,0l1.2,1.2    c0.2,0.1,0.1,0.4,0,0.5c-1.3,1.3-3,1.9-4.7,1.9c-3.9,0-7-3.1-7-7C476.5,107.8,479.6,104.7,483.5,104.7"
   id="path714" />
		<path
   class="st2"
   d="M490.8,105.2c0-0.2,0.2-0.4,0.4-0.4h1.8c0.2,0,0.4,0.2,0.4,0.4v12.9c0,0.2-0.2,0.4-0.4,0.4h-1.8    c-0.2,0-0.4-0.2-0.4-0.4V105.2z"
   id="path716" />
		<path
   class="st2"
   d="M503.5,113.8l-1.9-4.3h-0.1l-1.9,4.3H503.5z M495.1,117.9l6-13.1c0.1-0.1,0.2-0.2,0.3-0.2h0.2    c0.2,0,0.3,0.1,0.3,0.2l6,13.1c0.1,0.3,0,0.5-0.3,0.5H506c-0.3,0-0.4-0.1-0.6-0.4l-1-2.1h-5.8l-1,2.1c-0.1,0.2-0.3,0.4-0.6,0.4    h-1.7C495.1,118.5,495,118.2,495.1,117.9"
   id="path718" />
		<path
   class="st2"
   d="M509.8,105.2c0-0.2,0.2-0.4,0.4-0.4h1.8c0.2,0,0.4,0.2,0.4,0.4v10.9h5c0.2,0,0.4,0.2,0.4,0.4v1.6    c0,0.2-0.2,0.4-0.4,0.4h-7.1c-0.2,0-0.4-0.2-0.4-0.4V105.2z"
   id="path720" />
	</g>
	<g
   id="g782">
		<g
   id="g768">
			<path
   class="st2"
   d="M12.6,117.2c-1.3,0-2.4-0.3-3.3-0.9c-0.9-0.6-1.5-1.4-1.9-2.5l1.6-0.9c0.5,1.7,1.8,2.5,3.7,2.5     c0.9,0,1.7-0.2,2.2-0.6c0.5-0.4,0.7-0.9,0.7-1.5c0-0.7-0.2-1.1-0.7-1.5c-0.5-0.3-1.3-0.7-2.5-1c-0.6-0.2-1-0.3-1.3-0.5     c-0.3-0.1-0.7-0.3-1.1-0.5c-0.5-0.2-0.8-0.5-1-0.7c-0.2-0.2-0.4-0.6-0.6-1c-0.2-0.4-0.3-0.8-0.3-1.3c0-1.2,0.4-2.1,1.3-2.8     c0.8-0.7,1.9-1.1,3.1-1.1c1.1,0,2,0.3,2.8,0.8c0.8,0.6,1.4,1.3,1.8,2.2l-1.5,0.9c-0.6-1.4-1.6-2.1-3.1-2.1     c-0.7,0-1.3,0.2-1.8,0.5c-0.5,0.4-0.7,0.9-0.7,1.5c0,0.6,0.2,1.1,0.6,1.4c0.4,0.3,1.2,0.6,2.2,1c0.4,0.1,0.6,0.2,0.8,0.3     c0.2,0.1,0.4,0.1,0.7,0.3c0.3,0.1,0.6,0.2,0.7,0.3c0.2,0.1,0.4,0.2,0.6,0.3c0.3,0.1,0.5,0.3,0.6,0.4c0.1,0.1,0.3,0.3,0.5,0.5     c0.2,0.2,0.3,0.4,0.4,0.6c0.1,0.2,0.1,0.4,0.2,0.7s0.1,0.5,0.1,0.8c0,1.2-0.4,2.2-1.3,2.9C15.2,116.8,14,117.2,12.6,117.2z"
   id="path724" />
			<path
   class="st2"
   d="M28.1,106.8c1.4,0,2.5,0.5,3.5,1.5c1,1,1.5,2.2,1.5,3.7c0,1.4-0.5,2.7-1.5,3.7c-1,1-2.1,1.5-3.5,1.5     c-1.6,0-2.9-0.6-3.7-1.9v5.6h-1.7v-13.8h1.7v1.7C25.3,107.5,26.5,106.8,28.1,106.8z M27.9,115.5c1,0,1.8-0.3,2.5-1     c0.7-0.7,1-1.5,1-2.5c0-1-0.3-1.8-1-2.5c-0.7-0.7-1.5-1-2.5-1c-1,0-1.8,0.3-2.5,1c-0.7,0.7-1,1.5-1,2.5c0,1,0.3,1.8,1,2.5     C26.1,115.2,26.9,115.5,27.9,115.5z"
   id="path726" />
			<path
   class="st2"
   d="M39.7,112.8c0.2,0.9,0.6,1.6,1.2,2c0.6,0.5,1.4,0.7,2.3,0.7c1.3,0,2.2-0.5,2.8-1.4l1.5,0.8     c-1,1.5-2.4,2.2-4.3,2.2c-1.6,0-2.8-0.5-3.8-1.5c-1-1-1.5-2.2-1.5-3.7c0-1.5,0.5-2.7,1.4-3.7c1-1,2.2-1.5,3.7-1.5     c1.4,0,2.6,0.5,3.5,1.5c0.9,1,1.4,2.2,1.4,3.7c0,0.2,0,0.5-0.1,0.8H39.7z M43.1,108.4c-0.9,0-1.7,0.3-2.3,0.8     c-0.6,0.5-1,1.2-1.1,2.1h6.6c-0.1-0.9-0.5-1.6-1.1-2.1C44.6,108.7,43.9,108.4,43.1,108.4z"
   id="path728" />
			<path
   class="st2"
   d="M58.2,106.8c1.2,0,2.1,0.4,2.8,1.1c0.7,0.7,1,1.7,1,3v6h-1.7V111c0-0.8-0.2-1.4-0.6-1.9     c-0.4-0.4-1-0.7-1.8-0.7c-0.9,0-1.5,0.3-2.1,0.8c-0.5,0.5-0.8,1.3-0.8,2.4v5.2h-1.7v-9.8H55v1.4     C55.7,107.4,56.7,106.8,58.2,106.8z"
   id="path730" />
			<path
   class="st2"
   d="M72.3,117.2c-1.5,0-2.7-0.5-3.7-1.5c-1-1-1.5-2.2-1.5-3.7s0.5-2.7,1.5-3.7c1-1,2.2-1.5,3.7-1.5     c1,0,1.8,0.2,2.6,0.7c0.8,0.5,1.3,1.1,1.7,1.9l-1.4,0.8c-0.2-0.5-0.6-0.9-1.1-1.3c-0.5-0.3-1.1-0.5-1.8-0.5c-1,0-1.8,0.3-2.5,1     c-0.7,0.7-1,1.5-1,2.5c0,1,0.3,1.8,1,2.5c0.7,0.7,1.5,1,2.5,1c0.7,0,1.2-0.2,1.8-0.5c0.5-0.3,0.9-0.7,1.2-1.2l1.5,0.8     c-0.4,0.8-1,1.4-1.8,1.9C74.1,116.9,73.3,117.2,72.3,117.2z"
   id="path732" />
			<path
   class="st2"
   d="M82.8,112.8c0.2,0.9,0.6,1.6,1.2,2c0.6,0.5,1.4,0.7,2.3,0.7c1.3,0,2.2-0.5,2.8-1.4l1.5,0.8     c-1,1.5-2.4,2.2-4.3,2.2c-1.6,0-2.8-0.5-3.8-1.5c-1-1-1.5-2.2-1.5-3.7c0-1.5,0.5-2.7,1.4-3.7c1-1,2.2-1.5,3.7-1.5     c1.4,0,2.6,0.5,3.5,1.5c0.9,1,1.4,2.2,1.4,3.7c0,0.2,0,0.5-0.1,0.8H82.8z M86.2,108.4c-0.9,0-1.7,0.3-2.3,0.8     c-0.6,0.5-1,1.2-1.1,2.1h6.6c-0.1-0.9-0.5-1.6-1.1-2.1C87.7,108.7,87,108.4,86.2,108.4z"
   id="path734" />
			<path
   class="st2"
   d="M98.1,108.7c0.6-1.2,1.6-1.8,3.1-1.8v1.8c-0.8,0-1.6,0.2-2.2,0.7c-0.6,0.5-0.9,1.3-0.9,2.3v5.2h-1.7v-9.8     h1.7V108.7z"
   id="path736" />
			<path
   class="st2"
   d="M121.1,117.2c-2.1,0-3.8-0.7-5.2-2.1c-1.4-1.4-2-3.1-2-5.1c0-2,0.7-3.7,2-5.1c1.4-1.4,3.1-2.1,5.2-2.1     c1.3,0,2.4,0.3,3.5,0.9c1.1,0.6,1.9,1.4,2.5,2.4l-1.6,0.9c-0.4-0.8-1-1.4-1.8-1.8c-0.8-0.5-1.6-0.7-2.6-0.7     c-1.6,0-2.9,0.5-3.9,1.5c-1,1-1.5,2.3-1.5,3.8c0,1.5,0.5,2.8,1.5,3.8c1,1,2.3,1.5,3.9,1.5c0.9,0,1.8-0.2,2.6-0.7     c0.8-0.5,1.4-1.1,1.8-1.8l1.6,0.9c-0.6,1-1.4,1.8-2.5,2.4C123.5,116.9,122.4,117.2,121.1,117.2z"
   id="path738" />
			<path
   class="st2"
   d="M140.5,115.7c-1,1-2.2,1.5-3.7,1.5c-1.4,0-2.7-0.5-3.7-1.5c-1-1-1.5-2.2-1.5-3.7c0-1.5,0.5-2.7,1.5-3.7     c1-1,2.2-1.5,3.7-1.5c1.4,0,2.7,0.5,3.7,1.5c1,1,1.5,2.2,1.5,3.7C142,113.4,141.5,114.7,140.5,115.7z M136.8,115.5     c1,0,1.8-0.3,2.5-1c0.7-0.7,1-1.5,1-2.5c0-1-0.3-1.8-1-2.5c-0.7-0.7-1.5-1-2.5-1c-1,0-1.8,0.3-2.5,1c-0.7,0.7-1,1.5-1,2.5     c0,1,0.3,1.8,1,2.5C135,115.2,135.9,115.5,136.8,115.5z"
   id="path740" />
			<path
   class="st2"
   d="M158,106.8c1.1,0,2,0.4,2.7,1.1c0.7,0.7,1,1.7,1,2.9v6.1H160v-6.1c0-0.8-0.2-1.3-0.6-1.8s-0.9-0.6-1.6-0.6     c-0.7,0-1.3,0.2-1.8,0.7c-0.4,0.5-0.7,1.2-0.7,2.2v5.5h-1.7v-6.1c0-0.8-0.2-1.3-0.6-1.8c-0.4-0.4-0.9-0.6-1.5-0.6     c-0.7,0-1.3,0.2-1.8,0.7c-0.5,0.5-0.7,1.2-0.7,2.2v5.5h-1.7v-9.8h1.7v1.3c0.7-1,1.6-1.6,2.9-1.6c1.3,0,2.3,0.6,2.9,1.7     C155.6,107.4,156.6,106.8,158,106.8z"
   id="path742" />
			<path
   class="st2"
   d="M178,106.8c1.1,0,2,0.4,2.7,1.1c0.7,0.7,1,1.7,1,2.9v6.1H180v-6.1c0-0.8-0.2-1.3-0.6-1.8     c-0.4-0.4-0.9-0.6-1.6-0.6c-0.7,0-1.3,0.2-1.8,0.7c-0.4,0.5-0.7,1.2-0.7,2.2v5.5h-1.7v-6.1c0-0.8-0.2-1.3-0.6-1.8     c-0.4-0.4-0.9-0.6-1.5-0.6c-0.7,0-1.3,0.2-1.8,0.7c-0.5,0.5-0.7,1.2-0.7,2.2v5.5h-1.7v-9.8h1.7v1.3c0.7-1,1.6-1.6,2.9-1.6     c1.3,0,2.3,0.6,2.9,1.7C175.6,107.4,176.6,106.8,178,106.8z"
   id="path744" />
			<path
   class="st2"
   d="M188.6,112.8c0.2,0.9,0.6,1.6,1.2,2c0.6,0.5,1.4,0.7,2.3,0.7c1.3,0,2.2-0.5,2.8-1.4l1.5,0.8     c-1,1.5-2.4,2.2-4.3,2.2c-1.6,0-2.8-0.5-3.8-1.5c-1-1-1.5-2.2-1.5-3.7c0-1.5,0.5-2.7,1.4-3.7c1-1,2.2-1.5,3.7-1.5     c1.4,0,2.6,0.5,3.5,1.5c0.9,1,1.4,2.2,1.4,3.7c0,0.2,0,0.5-0.1,0.8H188.6z M192,108.4c-0.9,0-1.7,0.3-2.3,0.8     c-0.6,0.5-1,1.2-1.1,2.1h6.6c-0.1-0.9-0.5-1.6-1.1-2.1C193.5,108.7,192.8,108.4,192,108.4z"
   id="path746" />
			<path
   class="st2"
   d="M203.9,108.7c0.6-1.2,1.6-1.8,3.1-1.8v1.8c-0.8,0-1.6,0.2-2.2,0.7c-0.6,0.5-0.9,1.3-0.9,2.3v5.2h-1.7v-9.8     h1.7V108.7z"
   id="path748" />
			<path
   class="st2"
   d="M216.1,117.2c-1.5,0-2.7-0.5-3.7-1.5c-1-1-1.5-2.2-1.5-3.7s0.5-2.7,1.5-3.7c1-1,2.2-1.5,3.7-1.5     c1,0,1.8,0.2,2.6,0.7c0.8,0.5,1.3,1.1,1.7,1.9l-1.4,0.8c-0.2-0.5-0.6-0.9-1.1-1.3c-0.5-0.3-1.1-0.5-1.8-0.5c-1,0-1.8,0.3-2.5,1     c-0.7,0.7-1,1.5-1,2.5c0,1,0.3,1.8,1,2.5c0.7,0.7,1.5,1,2.5,1c0.7,0,1.2-0.2,1.8-0.5s0.9-0.7,1.2-1.2l1.5,0.8     c-0.4,0.8-1,1.4-1.8,1.9C217.9,116.9,217,117.2,216.1,117.2z"
   id="path750" />
			<path
   class="st2"
   d="M226.4,105.3c-0.3,0-0.6-0.1-0.8-0.3c-0.2-0.2-0.3-0.5-0.3-0.8c0-0.3,0.1-0.6,0.3-0.8     c0.2-0.2,0.5-0.3,0.8-0.3c0.3,0,0.6,0.1,0.8,0.3c0.2,0.2,0.3,0.5,0.3,0.8c0,0.3-0.1,0.6-0.3,0.8     C227,105.2,226.7,105.3,226.4,105.3z M225.5,116.9v-9.8h1.7v9.8H225.5z"
   id="path752" />
			<path
   class="st2"
   d="M241.3,107.1h1.7v9.8h-1.7v-1.7c-0.9,1.3-2.1,1.9-3.7,1.9c-1.4,0-2.5-0.5-3.5-1.5c-1-1-1.5-2.2-1.5-3.7     c0-1.4,0.5-2.7,1.5-3.7c1-1,2.1-1.5,3.5-1.5c1.6,0,2.9,0.6,3.7,1.9V107.1z M237.8,115.5c1,0,1.8-0.3,2.5-1c0.7-0.7,1-1.5,1-2.5     c0-1-0.3-1.8-1-2.5c-0.7-0.7-1.5-1-2.5-1c-1,0-1.8,0.3-2.5,1c-0.7,0.7-1,1.5-1,2.5c0,1,0.3,1.8,1,2.5     C236,115.2,236.8,115.5,237.8,115.5z"
   id="path754" />
			<path
   class="st2"
   d="M249,116.9v-14.3h1.7v14.3H249z"
   id="path756" />
			<path
   class="st2"
   d="M278.3,110.1v0.8c0,1.8-0.6,3.3-1.8,4.5c-1.2,1.2-2.9,1.8-4.9,1.8c-2.1,0-3.8-0.7-5.2-2.1     c-1.4-1.4-2.1-3.1-2.1-5.1s0.7-3.7,2.1-5.1c1.4-1.4,3.1-2.1,5.2-2.1c1.3,0,2.4,0.3,3.5,0.9c1.1,0.6,1.9,1.4,2.5,2.4l-1.6,0.9     c-0.4-0.7-1-1.3-1.8-1.8c-0.8-0.5-1.7-0.7-2.6-0.7c-1.6,0-2.9,0.5-3.9,1.5c-1,1-1.5,2.3-1.5,3.8s0.5,2.8,1.5,3.8     c1,1,2.3,1.5,3.9,1.5c1.4,0,2.5-0.3,3.3-1c0.9-0.7,1.4-1.5,1.6-2.6h-5v-1.7H278.3z"
   id="path758" />
			<path
   class="st2"
   d="M285.4,108.7c0.6-1.2,1.6-1.8,3.1-1.8v1.8c-0.8,0-1.6,0.2-2.2,0.7c-0.6,0.5-0.9,1.3-0.9,2.3v5.2h-1.7v-9.8     h1.7V108.7z"
   id="path760" />
			<path
   class="st2"
   d="M301.2,115.7c-1,1-2.2,1.5-3.7,1.5c-1.4,0-2.7-0.5-3.7-1.5c-1-1-1.5-2.2-1.5-3.7c0-1.5,0.5-2.7,1.5-3.7     c1-1,2.2-1.5,3.7-1.5c1.4,0,2.7,0.5,3.7,1.5c1,1,1.5,2.2,1.5,3.7C302.8,113.4,302.2,114.7,301.2,115.7z M297.6,115.5     c1,0,1.8-0.3,2.5-1c0.7-0.7,1-1.5,1-2.5c0-1-0.3-1.8-1-2.5c-0.7-0.7-1.5-1-2.5-1c-1,0-1.8,0.3-2.5,1s-1,1.5-1,2.5     c0,1,0.3,1.8,1,2.5S296.6,115.5,297.6,115.5z"
   id="path762" />
			<path
   class="st2"
   d="M314.9,107.1h1.7v9.8h-1.7v-1.4c-0.7,1.1-1.8,1.7-3.2,1.7c-1.2,0-2.1-0.4-2.8-1.1c-0.7-0.7-1-1.7-1-3v-6h1.7     v5.9c0,0.8,0.2,1.4,0.6,1.9c0.4,0.4,1,0.7,1.8,0.7c0.9,0,1.5-0.3,2.1-0.8c0.5-0.5,0.8-1.3,0.8-2.4V107.1z"
   id="path764" />
			<path
   class="st2"
   d="M328,106.8c1.4,0,2.5,0.5,3.5,1.5c1,1,1.5,2.2,1.5,3.7c0,1.4-0.5,2.7-1.5,3.7c-1,1-2.1,1.5-3.5,1.5     c-1.6,0-2.9-0.6-3.7-1.9v5.6h-1.7v-13.8h1.7v1.7C325.1,107.5,326.3,106.8,328,106.8z M327.7,115.5c1,0,1.8-0.3,2.5-1     c0.7-0.7,1-1.5,1-2.5c0-1-0.3-1.8-1-2.5c-0.7-0.7-1.5-1-2.5-1c-1,0-1.8,0.3-2.5,1c-0.7,0.7-1,1.5-1,2.5c0,1,0.3,1.8,1,2.5     C325.9,115.2,326.7,115.5,327.7,115.5z"
   id="path766" />
		</g>
		<g
   id="g780">
			<path
   class="st2"
   d="M43,64.3c-1.1-1.3-2.2-2.3-3.2-3.2c-1-0.8-2.5-1.6-4.5-2.4c-2-0.8-3.6-1.3-4.7-1.8c-1.1-0.4-2.8-1-5.1-1.9     c-4.8-1.5-8.1-2.8-9.9-4.1c-1.8-1.3-2.7-3.1-2.7-5.4c0-2.4,0.9-4.3,2.7-5.7c1.8-1.4,4.2-2.1,7.1-2.1c6.1,0,10.5,2.9,13.1,8.7     l8.6-5c-2-4.3-4.9-7.6-8.6-10.1c-3.7-2.4-8.1-3.7-13.1-3.7c-5.5,0-10.2,1.6-14.2,4.9c-3.9,3.2-5.9,7.6-5.9,13.1     c0,2.8,0.5,5.2,1.5,7.3c1,2.1,2.5,3.8,4.6,5.2c2,1.4,4,2.4,5.9,3.1c1.9,0.7,4.3,1.6,7.2,2.7c5.3,1.6,9,3.1,11.1,4.4     c2.1,1.3,3.1,3.3,3.1,5.8c0,2.4-1,4.4-2.9,5.9c-1.9,1.5-4.8,2.3-8.7,2.3c-7.8,0-13-3.5-15.5-10.5L0,77.1     c1.7,4.8,4.6,8.5,8.8,11.2c4.2,2.7,9.3,4.1,15.3,4.1c6.6,0,11.9-1.6,16-4.9c4.1-3.3,6.1-7.8,6.1-13.4c0-2-0.2-3.9-0.7-5.5     C45,67,44.2,65.5,43,64.3z"
   id="path770" />
			<path
   class="st2"
   d="M77.5,28.9h-23v62.4h10.2V69.9h12.7c5.9,0,10.8-2,14.7-5.9c3.9-3.9,5.9-8.8,5.9-14.6c0-5.8-2-10.7-5.9-14.6     C88.3,30.9,83.4,28.9,77.5,28.9z M85,57.2c-2,2-4.5,3.1-7.5,3.1H64.8V38.5h12.7c3,0,5.5,1,7.5,3.1c2,2,2.9,4.6,2.9,7.8     C87.9,52.6,87,55.2,85,57.2z"
   id="path772" />
			<polygon
   class="st2"
   points="107.1,91.3 143.9,91.3 143.9,81.5 117.3,81.5 117.3,64.6 143.9,64.6 143.9,54.9 117.3,54.9      117.3,38.7 143.9,38.7 143.9,28.9 107.1,28.9    "
   id="polygon774" />
			<polygon
   class="st2"
   points="191.7,71.5 162.1,28.9 154.3,28.9 154.3,91.3 164.6,91.3 164.6,49 194,91.3 202,91.3 202,28.9      191.7,28.9    "
   id="polygon776" />
			<path
   class="st2"
   d="M331,37.2c-6.3-6.3-13.9-9.4-22.9-9.4c-5.6,0-10.7,1.2-15.2,3.6l0,0c-10.1,4.9-16,15.5-21.6,25.8     c-7.2,13.4-13.5,25.3-27.3,25.3c-6.6,0-12-2.1-16.2-6.3c-4.1-4.2-6.2-9.6-6.2-16c0-6.5,2.1-11.8,6.2-16c4.1-4.2,9.5-6.3,16.2-6.3     c3.9,0,7.5,0.9,10.6,2.7c0.9,0.5,1.7,1.1,2.5,1.7l6-8.1c-1.1-0.8-2.3-1.6-3.6-2.3c-4.8-2.7-10-4-15.6-4c-9.4,0-17.2,3.1-23.3,9.3     c-6.2,6.2-9.3,13.9-9.3,23c0,9.1,3.1,16.8,9.3,23c6.2,6.2,13.9,9.3,23.3,9.4v0c0,0,0,0,0,0c0,0,0,0,0,0l0,0     c20,0,28.7-16.1,36.4-30.4c5-9.2,9.4-17.3,16.5-21.5l0,0c3.3-1.9,7-2.9,11.2-2.9c6.2,0,11.5,2.1,15.7,6.4c4.2,4.2,6.4,9.6,6.4,16     s-2.1,11.7-6.4,16c-4.2,4.2-9.5,6.4-15.7,6.4c-6.2,0-11.5-2.1-15.7-6.4c-3.3-3.3-5.3-7.3-6.1-12c-0.2,0.3-0.3,0.6-0.5,0.9     c-1.9,3.5-3.9,7.2-6.2,10.8c1.4,2.6,3.3,5,5.5,7.2c6.3,6.3,13.9,9.4,22.9,9.4c9,0,16.7-3.1,22.9-9.4c6.3-6.3,9.4-13.9,9.4-22.9     C340.4,51.1,337.2,43.4,331,37.2z"
   id="path778" />
		</g>
	</g>
</g>
</svg>
